<svg width="320" height="320" viewBox="0 0 320 320" fill="none" xmlns="http://www.w3.org/2000/svg">
<rect width="320" height="320" rx="64" fill="black"/>
<path fill-rule="evenodd" clip-rule="evenodd" d="M118.601 56.9233C118.601 53.3758 121.477 50.5 125.025 50.5H259.915C263.463 50.5 266.339 53.3758 266.339 56.9233V105.634C266.339 109.181 263.463 112.057 259.915 112.057H172.129C142.567 112.057 118.601 88.092 118.601 58.5292V56.9233ZM118.601 201.449C118.601 171.886 142.567 147.921 172.129 147.921H225.657C229.205 147.921 232.081 150.797 232.081 154.344V203.055C232.081 206.602 229.205 209.478 225.657 209.478H197.823C188.363 209.478 180.694 217.147 180.694 226.607V264.077C180.694 267.624 177.818 270.5 174.27 270.5H125.025C121.477 270.5 118.601 267.624 118.601 264.077V201.449Z" fill="white"/>
<path d="M107.209 87.163C104.283 82.3687 96.5206 82.3687 93.5946 87.163C84.7753 101.615 72.6206 113.827 58.1333 122.59C53.3688 125.472 53.2641 133.117 57.9735 136.088C72.5035 145.256 84.7297 157.686 93.6402 172.37C96.5464 177.158 104.257 177.158 107.163 172.37C116.074 157.686 128.3 145.256 142.83 136.088C147.54 133.117 147.435 125.472 142.671 122.59C128.183 113.827 116.028 101.615 107.209 87.163Z" fill="white"/>
</svg>
