<svg width="500" height="500" viewBox="0 0 500 500" fill="none" xmlns="http://www.w3.org/2000/svg">
<path fill-rule="evenodd" clip-rule="evenodd" d="M173.468 61.6788C173.468 55.2288 178.697 50 185.147 50H430.402C436.852 50 442.081 55.2288 442.081 61.6788V150.243C442.081 156.693 436.852 161.922 430.402 161.922H270.791C217.041 161.922 173.468 118.349 173.468 64.5985V61.6788ZM173.468 324.453C173.468 270.702 217.041 227.129 270.791 227.129H368.115C374.565 227.129 379.794 232.358 379.794 238.808V327.372C379.794 333.822 374.565 339.051 368.115 339.051H317.507C300.307 339.051 286.363 352.995 286.363 370.195V438.321C286.363 444.771 281.134 450 274.684 450H185.147C178.697 450 173.468 444.771 173.468 438.321V324.453Z" fill="black"/>
<path d="M152.755 116.66C147.435 107.943 133.321 107.943 128.001 116.66C111.966 142.936 89.8665 165.14 63.526 181.073C54.8632 186.313 54.6729 200.213 63.2354 205.615C89.6536 222.283 111.883 244.884 128.084 271.581C133.368 280.288 147.388 280.288 152.671 271.581C168.873 244.884 191.102 222.283 217.52 205.615C226.083 200.213 225.892 186.313 217.23 181.073C190.889 165.14 168.789 142.936 152.755 116.66Z" fill="black"/>
</svg>
